<svg width="24" height="24" viewBox="0 0 24 24" fill="none" xmlns="http://www.w3.org/2000/svg">
<path d="M8.29799 20.7529L8.2982 20.753C9.44955 21.2501 10.6818 21.5 12 21.5C13.3182 21.5 14.5505 21.2501 15.7018 20.753L15.702 20.7529C16.863 20.2522 17.868 19.5749 18.7214 18.7214C19.5749 17.868 20.2522 16.863 20.7529 15.702L20.753 15.7018C21.2501 14.5505 21.5 13.3182 21.5 12C21.5 10.6818 21.2501 9.44955 20.753 8.2982L20.7529 8.29799C20.2522 7.13697 19.5749 6.13202 18.7214 5.27855C17.868 4.4251 16.863 3.74747 15.702 3.24613L8.29799 20.7529ZM8.29799 20.7529C7.13697 20.2522 6.13202 19.5749 5.27855 18.7214C4.42509 17.868 3.7478 16.863 3.24713 15.702L3.24704 15.7018M8.29799 20.7529L3.24704 15.7018M3.24704 15.7018C2.74991 14.5505 2.5 13.3182 2.5 12C2.5 10.6818 2.74991 9.44955 3.24704 8.2982L3.24713 8.29799M3.24704 15.7018L3.24713 8.29799M3.24713 8.29799C3.7478 7.13697 4.42509 6.13202 5.27855 5.27855M3.24713 8.29799L5.27855 5.27855M9.86573 11.6346C10.4441 12.2123 11.1449 12.5 12 12.5C12.8552 12.5 13.556 12.2122 14.1344 11.6344C14.7122 11.056 15 10.3552 15 9.5C15 8.64473 14.7122 7.94385 14.1343 7.36538C13.5559 6.78771 12.8551 6.5 12 6.5C11.1448 6.5 10.444 6.78777 9.86556 7.36555C9.28777 7.94399 9 8.64481 9 9.5C9 10.3551 9.28771 11.0559 9.86538 11.6343C9.8655 11.6344 9.86561 11.6345 9.86573 11.6346ZM9.86573 11.6346L9.512 11.988M9.86573 11.6346L9.512 11.988M9.512 11.988C10.1873 12.6627 11.0167 13 12 13C12.9833 13 13.8127 12.6627 14.488 11.988H9.512ZM5.27855 5.27855C6.13201 4.4251 7.13697 3.74747 8.29799 3.24613L5.27855 5.27855ZM5.46972 17.4246L5.77735 17.785L6.15372 17.4972C6.96089 16.8799 7.86475 16.3916 8.86804 16.0329C9.8624 15.6781 10.9054 15.5 12 15.5C13.0946 15.5 14.1376 15.6781 15.132 16.0329C16.1352 16.3916 17.0391 16.8799 17.8463 17.4972L18.2227 17.785L18.5303 17.4246C19.1525 16.6958 19.636 15.8701 19.9811 14.9507L19.9812 14.9504C20.3282 14.0242 20.5 13.0395 20.5 12C20.5 9.65163 19.669 7.63656 18.0166 5.98352L18.0165 5.98337C16.3634 4.33104 14.3484 3.5 12 3.5C9.65163 3.5 7.63685 4.33104 5.98445 5.98345C4.33142 7.63647 3.5 9.65156 3.5 12C3.5 13.0395 3.67215 14.0242 4.01978 14.9504C4.36423 15.8699 4.84748 16.6957 5.46972 17.4246ZM14.6564 20.0879L14.6568 20.0878C15.49 19.8126 16.2546 19.4171 16.9484 18.9012L17.4879 18.5L16.9484 18.0988C16.2546 17.5829 15.49 17.1874 14.6568 16.9122L14.6564 16.9121C13.8191 16.6363 12.9327 16.5 12 16.5C11.0673 16.5 10.1809 16.6363 9.34358 16.9121L9.34322 16.9122C8.51001 17.1874 7.74539 17.5829 7.05165 18.0988L6.51206 18.5L7.05165 18.9012C7.74539 19.4171 8.51001 19.8126 9.34322 20.0878L9.34359 20.0879C10.1809 20.3637 11.0673 20.5 12 20.5C12.9327 20.5 13.8191 20.3637 14.6564 20.0879ZM8.2982 3.24604C9.44953 2.74958 10.6818 2.5 12 2.5C13.3182 2.5 14.5505 2.74958 15.7018 3.24604H8.2982ZM12 11.5C12.554 11.5 13.0433 11.3138 13.4286 10.9286C13.8138 10.5433 14 10.054 14 9.5C14 8.94598 13.8138 8.45666 13.4286 8.07145C13.0433 7.68624 12.554 7.5 12 7.5C11.446 7.5 10.9567 7.68624 10.5714 8.07145C10.1862 8.45666 10 8.94598 10 9.5C10 10.054 10.1862 10.5433 10.5714 10.9286C10.9567 11.3138 11.446 11.5 12 11.5Z" fill="#B3B2B2" stroke="#B3B2B2"/>
</svg>
