<svg width="20" height="20" viewBox="0 0 20 20" fill="none" xmlns="http://www.w3.org/2000/svg">
<path d="M6.29799 18.7529L6.2982 18.753C7.44955 19.2501 8.68179 19.5 10 19.5C11.3182 19.5 12.5505 19.2501 13.7018 18.753L13.702 18.7529C14.863 18.2522 15.868 17.5749 16.7214 16.7214C17.5749 15.868 18.2522 14.863 18.7529 13.702L18.753 13.7018C19.2501 12.5505 19.5 11.3182 19.5 10C19.5 8.68179 19.2501 7.44955 18.753 6.2982L18.7529 6.29799C18.2522 5.13697 17.5749 4.13202 16.7214 3.27855C15.868 2.4251 14.863 1.74747 13.702 1.24613L6.29799 18.7529ZM6.29799 18.7529C5.13697 18.2522 4.13202 17.5749 3.27855 16.7214C2.42509 15.868 1.7478 14.863 1.24713 13.702L1.24704 13.7018M6.29799 18.7529L1.24704 13.7018M1.24704 13.7018C0.74991 12.5505 0.5 11.3182 0.5 10C0.5 8.68179 0.74991 7.44955 1.24704 6.2982L1.24713 6.29799M1.24704 13.7018L1.24713 6.29799M1.24713 6.29799C1.7478 5.13697 2.42509 4.13202 3.27855 3.27855M1.24713 6.29799L3.27855 3.27855M7.86573 9.63462C8.44413 10.2123 9.1449 10.5 10 10.5C10.8552 10.5 11.556 10.2122 12.1344 9.63445C12.7122 9.05601 13 8.35519 13 7.5C13 6.64473 12.7122 5.94385 12.1343 5.36538C11.5559 4.78771 10.8551 4.5 10 4.5C9.14481 4.5 8.44399 4.78777 7.86556 5.36555C7.28777 5.94399 7 6.64481 7 7.5C7 8.3551 7.28771 9.05587 7.86538 9.63427C7.8655 9.63439 7.86561 9.63451 7.86573 9.63462ZM7.86573 9.63462L7.512 9.988M7.86573 9.63462L7.512 9.988M7.512 9.988C8.18733 10.6627 9.01667 11 10 11C10.9833 11 11.8127 10.6627 12.488 9.988H7.512ZM3.27855 3.27855C4.13201 2.4251 5.13697 1.74747 6.29799 1.24613L3.27855 3.27855ZM3.46972 15.4246L3.77735 15.785L4.15372 15.4972C4.96089 14.8799 5.86475 14.3916 6.86804 14.0329C7.8624 13.6781 8.90543 13.5 10 13.5C11.0946 13.5 12.1376 13.6781 13.132 14.0329C14.1352 14.3916 15.0391 14.8799 15.8463 15.4972L16.2227 15.785L16.5303 15.4246C17.1525 14.6958 17.636 13.8701 17.9811 12.9507L17.9812 12.9504C18.3282 12.0242 18.5 11.0395 18.5 10C18.5 7.65163 17.669 5.63656 16.0166 3.98352L16.0165 3.98337C14.3634 2.33104 12.3484 1.5 10 1.5C7.65163 1.5 5.63685 2.33104 3.98445 3.98345C2.33142 5.63647 1.5 7.65156 1.5 10C1.5 11.0395 1.67215 12.0242 2.01978 12.9504C2.36423 13.8699 2.84748 14.6957 3.46972 15.4246ZM12.6564 18.0879L12.6568 18.0878C13.49 17.8126 14.2546 17.4171 14.9484 16.9012L15.4879 16.5L14.9484 16.0988C14.2546 15.5829 13.49 15.1874 12.6568 14.9122L12.6564 14.9121C11.8191 14.6363 10.9327 14.5 10 14.5C9.06731 14.5 8.18086 14.6363 7.34358 14.9121L7.34322 14.9122C6.51001 15.1874 5.74539 15.5829 5.05165 16.0988L4.51206 16.5L5.05165 16.9012C5.74539 17.4171 6.51001 17.8126 7.34322 18.0878L7.34359 18.0879C8.18086 18.3637 9.06731 18.5 10 18.5C10.9327 18.5 11.8191 18.3637 12.6564 18.0879ZM6.2982 1.24604C7.44953 0.749581 8.68178 0.5 10 0.5C11.3182 0.5 12.5505 0.749581 13.7018 1.24604H6.2982ZM10 9.5C10.554 9.5 11.0433 9.31376 11.4286 8.92855C11.8138 8.54334 12 8.05402 12 7.5C12 6.94598 11.8138 6.45666 11.4286 6.07145C11.0433 5.68624 10.554 5.5 10 5.5C9.44598 5.5 8.95666 5.68624 8.57145 6.07145C8.18624 6.45666 8 6.94598 8 7.5C8 8.05402 8.18624 8.54334 8.57145 8.92855C8.95666 9.31376 9.44598 9.5 10 9.5Z" fill="#B3B2B2" stroke="#B3B2B2"/>
</svg>
